<svg width="420" height="86" viewBox="0 0 420 86" fill="none" xmlns="http://www.w3.org/2000/svg">
<mask id="path-1-inside-1_870_8679" fill="white">
<path fill-rule="evenodd" clip-rule="evenodd" d="M0 0H352.297C352.297 3.46169 355.104 6.32265 358.566 6.32265C362.027 6.32265 364.834 3.46169 364.834 0H420V86H364.834C364.834 85.9998 364.834 85.9995 364.834 85.9993C364.834 82.5372 362.028 79.6758 358.566 79.6758C355.103 79.6758 352.297 82.5372 352.297 85.9993C352.297 85.9995 352.297 85.9998 352.297 86H0V0Z"/>
</mask>
<path fill-rule="evenodd" clip-rule="evenodd" d="M0 0H352.297C352.297 3.46169 355.104 6.32265 358.566 6.32265C362.027 6.32265 364.834 3.46169 364.834 0H420V86H364.834C364.834 85.9998 364.834 85.9995 364.834 85.9993C364.834 82.5372 362.028 79.6758 358.566 79.6758C355.103 79.6758 352.297 82.5372 352.297 85.9993C352.297 85.9995 352.297 85.9998 352.297 86H0V0Z" fill="white"/>
<path d="M352.297 0L353.297 -0.000141053L353.297 -1H352.297V0ZM0 0V-1H-1V0H0ZM364.834 0V-1H363.834L363.834 -0.000141053L364.834 0ZM420 0H421V-1H420V0ZM420 86V87H421V86H420ZM364.834 86H363.834V87H364.834V86ZM352.297 86V87H353.297V86H352.297ZM0 86H-1V87H0V86ZM352.297 -1H0V1H352.297V-1ZM358.566 5.32265C355.667 5.32265 353.297 2.92069 353.297 -0.000141053L351.297 0.000141053C351.297 4.00268 354.54 7.32265 358.566 7.32265V5.32265ZM363.834 -0.000141053C363.834 2.92069 361.464 5.32265 358.566 5.32265V7.32265C362.591 7.32265 365.834 4.00268 365.834 0.000141053L363.834 -0.000141053ZM420 -1H364.834V1H420V-1ZM421 86V0H419V86H421ZM364.834 87H420V85H364.834V87ZM363.834 85.9993C363.834 85.9993 363.834 85.9993 363.834 85.9993C363.834 85.9993 363.834 85.9993 363.834 85.9993C363.834 85.9993 363.834 85.9993 363.834 85.9993C363.834 85.9993 363.834 85.9993 363.834 85.9993C363.834 85.9993 363.834 85.9993 363.834 85.9993V85.9993C363.834 85.9993 363.834 85.9993 363.834 85.9994V85.9994C363.834 85.9994 363.834 85.9994 363.834 85.9994V85.9994C363.834 85.9994 363.834 85.9994 363.834 85.9994V85.9994C363.834 85.9994 363.834 85.9994 363.834 85.9994V85.9994C363.834 85.9994 363.834 85.9994 363.834 85.9994C363.834 85.9994 363.834 85.9994 363.834 85.9994C363.834 85.9994 363.834 85.9994 363.834 85.9994C363.834 85.9994 363.834 85.9994 363.834 85.9994V85.9994C363.834 85.9994 363.834 85.9994 363.834 85.9995V85.9995C363.834 85.9995 363.834 85.9995 363.834 85.9995C363.834 85.9995 363.834 85.9995 363.834 85.9995C363.834 85.9995 363.834 85.9995 363.834 85.9995C363.834 85.9995 363.834 85.9995 363.834 85.9995V85.9995C363.834 85.9995 363.834 85.9995 363.834 85.9995V85.9995C363.834 85.9995 363.834 85.9995 363.834 85.9995C363.834 85.9995 363.834 85.9995 363.834 85.9995C363.834 85.9995 363.834 85.9995 363.834 85.9995C363.834 85.9995 363.834 85.9995 363.834 85.9995V85.9995C363.834 85.9996 363.834 85.9996 363.834 85.9996C363.834 85.9996 363.834 85.9996 363.834 85.9996C363.834 85.9996 363.834 85.9996 363.834 85.9996C363.834 85.9996 363.834 85.9996 363.834 85.9996V85.9996C363.834 85.9996 363.834 85.9996 363.834 85.9996V85.9996C363.834 85.9996 363.834 85.9996 363.834 85.9996C363.834 85.9996 363.834 85.9996 363.834 85.9996V85.9996C363.834 85.9996 363.834 85.9996 363.834 85.9996V85.9996C363.834 85.9996 363.834 85.9996 363.834 85.9996C363.834 85.9996 363.834 85.9996 363.834 85.9997V85.9997C363.834 85.9997 363.834 85.9997 363.834 85.9997V85.9997C363.834 85.9997 363.834 85.9997 363.834 85.9997C363.834 85.9997 363.834 85.9997 363.834 85.9997V85.9997C363.834 85.9997 363.834 85.9997 363.834 85.9997V85.9997C363.834 85.9997 363.834 85.9997 363.834 85.9997C363.834 85.9997 363.834 85.9997 363.834 85.9997C363.834 85.9997 363.834 85.9997 363.834 85.9997C363.834 85.9997 363.834 85.9997 363.834 85.9997V85.9998C363.834 85.9998 363.834 85.9998 363.834 85.9998C363.834 85.9998 363.834 85.9998 363.834 85.9998C363.834 85.9998 363.834 85.9998 363.834 85.9998C363.834 85.9998 363.834 85.9998 363.834 85.9998V85.9998C363.834 85.9998 363.834 85.9998 363.834 85.9998V85.9998C363.834 85.9998 363.834 85.9998 363.834 85.9998C363.834 85.9998 363.834 85.9998 363.834 85.9998C363.834 85.9998 363.834 85.9998 363.834 85.9998C363.834 85.9998 363.834 85.9998 363.834 85.9998V85.9998C363.834 85.9999 363.834 85.9999 363.834 85.9999V85.9999C363.834 85.9999 363.834 85.9999 363.834 85.9999C363.834 85.9999 363.834 85.9999 363.834 85.9999C363.834 85.9999 363.834 85.9999 363.834 85.9999C363.834 85.9999 363.834 85.9999 363.834 85.9999V85.9999C363.834 85.9999 363.834 85.9999 363.834 85.9999V85.9999C363.834 85.9999 363.834 85.9999 363.834 85.9999V85.9999C363.834 85.9999 363.834 85.9999 363.834 85.9999V85.9999C363.834 86 363.834 86 363.834 86V86C363.834 86 363.834 86 363.834 86C363.834 86 363.834 86 363.834 86C363.834 86 363.834 86 363.834 86C363.834 86 363.834 86 363.834 86C363.834 86 363.834 86 363.834 86H365.834C365.834 86 365.834 86 365.834 86C365.834 86 365.834 86 365.834 86C365.834 86 365.834 86 365.834 86C365.834 86 365.834 86 365.834 86C365.834 86 365.834 86 365.834 86V86C365.834 86 365.834 86 365.834 85.9999V85.9999C365.834 85.9999 365.834 85.9999 365.834 85.9999V85.9999C365.834 85.9999 365.834 85.9999 365.834 85.9999V85.9999C365.834 85.9999 365.834 85.9999 365.834 85.9999V85.9999C365.834 85.9999 365.834 85.9999 365.834 85.9999C365.834 85.9999 365.834 85.9999 365.834 85.9999C365.834 85.9999 365.834 85.9999 365.834 85.9999C365.834 85.9999 365.834 85.9999 365.834 85.9999V85.9999C365.834 85.9999 365.834 85.9999 365.834 85.9998V85.9998C365.834 85.9998 365.834 85.9998 365.834 85.9998C365.834 85.9998 365.834 85.9998 365.834 85.9998C365.834 85.9998 365.834 85.9998 365.834 85.9998C365.834 85.9998 365.834 85.9998 365.834 85.9998V85.9998C365.834 85.9998 365.834 85.9998 365.834 85.9998V85.9998C365.834 85.9998 365.834 85.9998 365.834 85.9998C365.834 85.9998 365.834 85.9998 365.834 85.9998C365.834 85.9998 365.834 85.9998 365.834 85.9998C365.834 85.9998 365.834 85.9998 365.834 85.9998V85.9997C365.834 85.9997 365.834 85.9997 365.834 85.9997C365.834 85.9997 365.834 85.9997 365.834 85.9997C365.834 85.9997 365.834 85.9997 365.834 85.9997C365.834 85.9997 365.834 85.9997 365.834 85.9997V85.9997C365.834 85.9997 365.834 85.9997 365.834 85.9997V85.9997C365.834 85.9997 365.834 85.9997 365.834 85.9997C365.834 85.9997 365.834 85.9997 365.834 85.9997V85.9997C365.834 85.9997 365.834 85.9997 365.834 85.9997V85.9997C365.834 85.9996 365.834 85.9996 365.834 85.9996C365.834 85.9996 365.834 85.9996 365.834 85.9996V85.9996C365.834 85.9996 365.834 85.9996 365.834 85.9996V85.9996C365.834 85.9996 365.834 85.9996 365.834 85.9996C365.834 85.9996 365.834 85.9996 365.834 85.9996V85.9996C365.834 85.9996 365.834 85.9996 365.834 85.9996V85.9996C365.834 85.9996 365.834 85.9996 365.834 85.9996C365.834 85.9996 365.834 85.9996 365.834 85.9996C365.834 85.9996 365.834 85.9996 365.834 85.9996C365.834 85.9996 365.834 85.9996 365.834 85.9995V85.9995C365.834 85.9995 365.834 85.9995 365.834 85.9995C365.834 85.9995 365.834 85.9995 365.834 85.9995C365.834 85.9995 365.834 85.9995 365.834 85.9995C365.834 85.9995 365.834 85.9995 365.834 85.9995V85.9995C365.834 85.9995 365.834 85.9995 365.834 85.9995V85.9995C365.834 85.9995 365.834 85.9995 365.834 85.9995C365.834 85.9995 365.834 85.9995 365.834 85.9995C365.834 85.9995 365.834 85.9995 365.834 85.9995C365.834 85.9995 365.834 85.9995 365.834 85.9995V85.9995C365.834 85.9994 365.834 85.9994 365.834 85.9994V85.9994C365.834 85.9994 365.834 85.9994 365.834 85.9994C365.834 85.9994 365.834 85.9994 365.834 85.9994C365.834 85.9994 365.834 85.9994 365.834 85.9994C365.834 85.9994 365.834 85.9994 365.834 85.9994V85.9994C365.834 85.9994 365.834 85.9994 365.834 85.9994V85.9994C365.834 85.9994 365.834 85.9994 365.834 85.9994V85.9994C365.834 85.9994 365.834 85.9994 365.834 85.9994V85.9994C365.834 85.9993 365.834 85.9993 365.834 85.9993V85.9993C365.834 85.9993 365.834 85.9993 365.834 85.9993C365.834 85.9993 365.834 85.9993 365.834 85.9993C365.834 85.9993 365.834 85.9993 365.834 85.9993C365.834 85.9993 365.834 85.9993 365.834 85.9993C365.834 85.9993 365.834 85.9993 365.834 85.9993H363.834ZM358.566 80.6758C361.464 80.6758 363.834 83.0781 363.834 85.9993H365.834C365.834 81.9963 362.591 78.6758 358.566 78.6758V80.6758ZM353.297 85.9993C353.297 83.0781 355.667 80.6758 358.566 80.6758V78.6758C354.54 78.6758 351.297 81.9963 351.297 85.9993H353.297ZM353.297 86C353.297 86 353.297 86 353.297 86C353.297 86 353.297 86 353.297 86C353.297 86 353.297 86 353.297 86C353.297 86 353.297 86 353.297 86C353.297 86 353.297 86 353.297 86V86C353.297 86 353.297 86 353.297 85.9999V85.9999C353.297 85.9999 353.297 85.9999 353.297 85.9999V85.9999C353.297 85.9999 353.297 85.9999 353.297 85.9999V85.9999C353.297 85.9999 353.297 85.9999 353.297 85.9999V85.9999C353.297 85.9999 353.297 85.9999 353.297 85.9999C353.297 85.9999 353.297 85.9999 353.297 85.9999C353.297 85.9999 353.297 85.9999 353.297 85.9999C353.297 85.9999 353.297 85.9999 353.297 85.9999V85.9999C353.297 85.9999 353.297 85.9999 353.297 85.9998V85.9998C353.297 85.9998 353.297 85.9998 353.297 85.9998C353.297 85.9998 353.297 85.9998 353.297 85.9998C353.297 85.9998 353.297 85.9998 353.297 85.9998C353.297 85.9998 353.297 85.9998 353.297 85.9998V85.9998C353.297 85.9998 353.297 85.9998 353.297 85.9998V85.9998C353.297 85.9998 353.297 85.9998 353.297 85.9998C353.297 85.9998 353.297 85.9998 353.297 85.9998C353.297 85.9998 353.297 85.9998 353.297 85.9998C353.297 85.9998 353.297 85.9998 353.297 85.9998V85.9997C353.297 85.9997 353.297 85.9997 353.297 85.9997C353.297 85.9997 353.297 85.9997 353.297 85.9997C353.297 85.9997 353.297 85.9997 353.297 85.9997C353.297 85.9997 353.297 85.9997 353.297 85.9997V85.9997C353.297 85.9997 353.297 85.9997 353.297 85.9997V85.9997C353.297 85.9997 353.297 85.9997 353.297 85.9997C353.297 85.9997 353.297 85.9997 353.297 85.9997V85.9997C353.297 85.9997 353.297 85.9997 353.297 85.9997V85.9997C353.297 85.9996 353.297 85.9996 353.297 85.9996C353.297 85.9996 353.297 85.9996 353.297 85.9996V85.9996C353.297 85.9996 353.297 85.9996 353.297 85.9996V85.9996C353.297 85.9996 353.297 85.9996 353.297 85.9996C353.297 85.9996 353.297 85.9996 353.297 85.9996V85.9996C353.297 85.9996 353.297 85.9996 353.297 85.9996V85.9996C353.297 85.9996 353.297 85.9996 353.297 85.9996C353.297 85.9996 353.297 85.9996 353.297 85.9996C353.297 85.9996 353.297 85.9996 353.297 85.9996C353.297 85.9996 353.297 85.9996 353.297 85.9995V85.9995C353.297 85.9995 353.297 85.9995 353.297 85.9995C353.297 85.9995 353.297 85.9995 353.297 85.9995C353.297 85.9995 353.297 85.9995 353.297 85.9995C353.297 85.9995 353.297 85.9995 353.297 85.9995V85.9995C353.297 85.9995 353.297 85.9995 353.297 85.9995V85.9995C353.297 85.9995 353.297 85.9995 353.297 85.9995C353.297 85.9995 353.297 85.9995 353.297 85.9995C353.297 85.9995 353.297 85.9995 353.297 85.9995C353.297 85.9995 353.297 85.9995 353.297 85.9995V85.9995C353.297 85.9994 353.297 85.9994 353.297 85.9994V85.9994C353.297 85.9994 353.297 85.9994 353.297 85.9994C353.297 85.9994 353.297 85.9994 353.297 85.9994C353.297 85.9994 353.297 85.9994 353.297 85.9994C353.297 85.9994 353.297 85.9994 353.297 85.9994V85.9994C353.297 85.9994 353.297 85.9994 353.297 85.9994V85.9994C353.297 85.9994 353.297 85.9994 353.297 85.9994V85.9994C353.297 85.9994 353.297 85.9994 353.297 85.9994V85.9994C353.297 85.9993 353.297 85.9993 353.297 85.9993V85.9993C353.297 85.9993 353.297 85.9993 353.297 85.9993C353.297 85.9993 353.297 85.9993 353.297 85.9993C353.297 85.9993 353.297 85.9993 353.297 85.9993C353.297 85.9993 353.297 85.9993 353.297 85.9993C353.297 85.9993 353.297 85.9993 353.297 85.9993H351.297C351.297 85.9993 351.297 85.9993 351.297 85.9993C351.297 85.9993 351.297 85.9993 351.297 85.9993C351.297 85.9993 351.297 85.9993 351.297 85.9993C351.297 85.9993 351.297 85.9993 351.297 85.9993C351.297 85.9993 351.297 85.9993 351.297 85.9993V85.9993C351.297 85.9993 351.297 85.9993 351.297 85.9994V85.9994C351.297 85.9994 351.297 85.9994 351.297 85.9994V85.9994C351.297 85.9994 351.297 85.9994 351.297 85.9994V85.9994C351.297 85.9994 351.297 85.9994 351.297 85.9994V85.9994C351.297 85.9994 351.297 85.9994 351.297 85.9994C351.297 85.9994 351.297 85.9994 351.297 85.9994C351.297 85.9994 351.297 85.9994 351.297 85.9994C351.297 85.9994 351.297 85.9994 351.297 85.9994V85.9994C351.297 85.9994 351.297 85.9994 351.297 85.9995V85.9995C351.297 85.9995 351.297 85.9995 351.297 85.9995C351.297 85.9995 351.297 85.9995 351.297 85.9995C351.297 85.9995 351.297 85.9995 351.297 85.9995C351.297 85.9995 351.297 85.9995 351.297 85.9995V85.9995C351.297 85.9995 351.297 85.9995 351.297 85.9995V85.9995C351.297 85.9995 351.297 85.9995 351.297 85.9995C351.297 85.9995 351.297 85.9995 351.297 85.9995C351.297 85.9995 351.297 85.9995 351.297 85.9995C351.297 85.9995 351.297 85.9995 351.297 85.9995V85.9995C351.297 85.9996 351.297 85.9996 351.297 85.9996C351.297 85.9996 351.297 85.9996 351.297 85.9996C351.297 85.9996 351.297 85.9996 351.297 85.9996C351.297 85.9996 351.297 85.9996 351.297 85.9996V85.9996C351.297 85.9996 351.297 85.9996 351.297 85.9996V85.9996C351.297 85.9996 351.297 85.9996 351.297 85.9996C351.297 85.9996 351.297 85.9996 351.297 85.9996V85.9996C351.297 85.9996 351.297 85.9996 351.297 85.9996V85.9996C351.297 85.9996 351.297 85.9996 351.297 85.9996C351.297 85.9996 351.297 85.9996 351.297 85.9997V85.9997C351.297 85.9997 351.297 85.9997 351.297 85.9997V85.9997C351.297 85.9997 351.297 85.9997 351.297 85.9997C351.297 85.9997 351.297 85.9997 351.297 85.9997V85.9997C351.297 85.9997 351.297 85.9997 351.297 85.9997V85.9997C351.297 85.9997 351.297 85.9997 351.297 85.9997C351.297 85.9997 351.297 85.9997 351.297 85.9997C351.297 85.9997 351.297 85.9997 351.297 85.9997C351.297 85.9997 351.297 85.9997 351.297 85.9997V85.9998C351.297 85.9998 351.297 85.9998 351.297 85.9998C351.297 85.9998 351.297 85.9998 351.297 85.9998C351.297 85.9998 351.297 85.9998 351.297 85.9998C351.297 85.9998 351.297 85.9998 351.297 85.9998V85.9998C351.297 85.9998 351.297 85.9998 351.297 85.9998V85.9998C351.297 85.9998 351.297 85.9998 351.297 85.9998C351.297 85.9998 351.297 85.9998 351.297 85.9998C351.297 85.9998 351.297 85.9998 351.297 85.9998C351.297 85.9998 351.297 85.9998 351.297 85.9998V85.9998C351.297 85.9999 351.297 85.9999 351.297 85.9999V85.9999C351.297 85.9999 351.297 85.9999 351.297 85.9999C351.297 85.9999 351.297 85.9999 351.297 85.9999C351.297 85.9999 351.297 85.9999 351.297 85.9999C351.297 85.9999 351.297 85.9999 351.297 85.9999V85.9999C351.297 85.9999 351.297 85.9999 351.297 85.9999V85.9999C351.297 85.9999 351.297 85.9999 351.297 85.9999V85.9999C351.297 85.9999 351.297 85.9999 351.297 85.9999V85.9999C351.297 86 351.297 86 351.297 86V86C351.297 86 351.297 86 351.297 86C351.297 86 351.297 86 351.297 86C351.297 86 351.297 86 351.297 86C351.297 86 351.297 86 351.297 86C351.297 86 351.297 86 351.297 86H353.297ZM0 87H352.297V85H0V87ZM-1 0V86H1V0H-1Z" fill="#E9E9E9" mask="url(#path-1-inside-1_870_8679)"/>
<rect x="357.628" y="21.8125" width="0.626866" height="41.1084" stroke="#E9E9E9" stroke-width="0.626866" stroke-dasharray="1 1"/>
</svg>
