<svg width="28" height="28" viewBox="0 0 28 28" fill="none" xmlns="http://www.w3.org/2000/svg">
<path d="M18.3477 17.7743C17.1026 19.2888 15.3629 20.3152 13.4352 20.6726C11.5075 21.0301 9.51546 20.6957 7.81014 19.7283C6.10483 18.761 4.79567 17.2227 4.11335 15.3847C3.43103 13.5467 3.41934 11.5268 4.08034 9.68105C4.74134 7.83525 6.03261 6.28199 7.72662 5.29497C9.42062 4.30794 11.4086 3.95049 13.3404 4.28561C15.2721 4.62073 17.0236 5.6269 18.2861 7.12684C19.5487 8.62677 20.2413 10.5242 20.242 12.4848C20.2433 14.4143 19.5736 16.2843 18.3477 17.7743ZM18.3477 17.7743L25.5121 24.1437" stroke="black" stroke-width="1.1"/>
</svg>
