<svg width="30" height="30" viewBox="0 0 30 30" fill="none" xmlns="http://www.w3.org/2000/svg">
<g clip-path="url(#clip0_612_1515)">
<path d="M15.5087 9.39746L27.5762 27.7866H3.44043L15.5087 9.39746Z" fill="white"/>
<path d="M15.5087 11.444L5.52067 26.6637H25.4967L15.5087 11.444ZM15.5087 9.39746L27.5762 27.7866H3.44043L15.5087 9.39746Z" fill="black"/>
<path d="M15.5079 16.2925C19.1576 16.2925 22.1162 13.3339 22.1162 9.68421C22.1162 6.03456 19.1576 3.07593 15.5079 3.07593C11.8583 3.07593 8.89966 6.03456 8.89966 9.68421C8.89966 13.3339 11.8583 16.2925 15.5079 16.2925Z" fill="white"/>
<path d="M15.5079 4.19877C14.423 4.19877 13.3625 4.52048 12.4604 5.12323C11.5583 5.72598 10.8552 6.58269 10.4401 7.58502C10.0249 8.58735 9.91624 9.69029 10.1279 10.7544C10.3396 11.8184 10.862 12.7958 11.6291 13.563C12.3963 14.3302 13.3737 14.8526 14.4378 15.0642C15.5019 15.2759 16.6048 15.1673 17.6071 14.7521C18.6095 14.3369 19.4662 13.6338 20.0689 12.7318C20.6717 11.8297 20.9934 10.7691 20.9934 9.68421C20.9916 8.22993 20.4131 6.83572 19.3848 5.80738C18.3564 4.77905 16.9622 4.20055 15.5079 4.19877ZM15.5079 3.07593C16.8149 3.07593 18.0926 3.4635 19.1793 4.18962C20.266 4.91575 21.113 5.94782 21.6132 7.15533C22.1134 8.36283 22.2442 9.69154 21.9892 10.9734C21.7343 12.2553 21.1049 13.4328 20.1807 14.357C19.2565 15.2812 18.079 15.9105 16.7971 16.1655C15.5153 16.4205 14.1866 16.2896 12.9791 15.7895C11.7716 15.2893 10.7395 14.4423 10.0134 13.3556C9.28723 12.2688 8.89966 10.9912 8.89966 9.68421C8.89966 7.93158 9.59589 6.25074 10.8352 5.01145C12.0745 3.77216 13.7553 3.07593 15.5079 3.07593Z" fill="black"/>
<circle cx="23.8236" cy="23.8234" r="6.17647" fill="white"/>
<path d="M20.1177 24.0498H28.6177" stroke="black" stroke-width="1.2"/>
<path d="M24.3677 28.2998V19.7998" stroke="black" stroke-width="1.2"/>
</g>
<defs>
<clipPath id="clip0_612_1515">
<rect width="30" height="30" fill="white"/>
</clipPath>
</defs>
</svg>
