<svg width="28" height="28" viewBox="0 0 28 28" fill="none" xmlns="http://www.w3.org/2000/svg">
<g clip-path="url(#clip0_1243_1835)">
<path d="M8.95466 3.15251C9.7985 3.15508 10.6326 3.33346 11.4036 3.67629C12.1747 4.01912 12.8659 4.51886 13.4331 5.14366L14.0032 5.75712L14.5732 5.14366C15.1388 4.5168 15.8296 4.01565 16.6011 3.67263C17.3725 3.3296 18.2074 3.15234 19.0516 3.15234C19.8959 3.15234 20.7308 3.3296 21.5022 3.67263C22.2737 4.01565 22.9645 4.5168 23.53 5.14366C24.7123 6.44806 25.3672 8.1456 25.3672 9.90607C25.3672 11.6665 24.7123 13.364 23.53 14.6684L22.5764 15.6941L14.0024 24.9163L4.47353 14.6684C3.29168 13.3638 2.63708 11.6664 2.63708 9.90607C2.63708 8.14574 3.29168 6.44827 4.47353 5.14366C5.04122 4.51875 5.73289 4.01899 6.50442 3.67616C7.27595 3.33334 8.11039 3.15499 8.95466 3.15251ZM14.0032 7.29694L12.6659 5.85771C12.1985 5.33626 11.6264 4.91916 10.9869 4.63362C10.3475 4.34808 9.65497 4.2005 8.95466 4.2005C8.25435 4.2005 7.56195 4.34808 6.92249 4.63362C6.28303 4.91916 5.71086 5.33626 5.2434 5.85771C4.24136 6.96815 3.68677 8.4107 3.68677 9.90641C3.68677 11.4021 4.24136 12.8447 5.2434 13.9551L6.19705 14.9807L14.0032 23.3793L22.7629 13.9551C23.7651 12.8447 24.3199 11.4022 24.3199 9.90641C24.3199 8.41066 23.7651 6.96807 22.7629 5.85771C22.2954 5.33637 21.7234 4.91939 21.084 4.63392C20.4446 4.34844 19.7522 4.20088 19.052 4.20088C18.3518 4.20088 17.6594 4.34844 17.02 4.63392C16.3806 4.91939 15.8085 5.33637 15.3411 5.85771L14.0032 7.29694Z" fill="black"/>
</g>
<defs>
<clipPath id="clip0_1243_1835">
<rect width="28" height="28" fill="white"/>
</clipPath>
</defs>
</svg>
