<svg width="176" height="24" viewBox="0 0 176 24" fill="none" xmlns="http://www.w3.org/2000/svg">
<g clip-path="url(#clip0_612_3970)">
<path d="M15.2011 10.2498L9.71804 22.9818L0.431885 1.43806H4.91804L9.88789 12.9673L15.2011 0.630371L20.518 12.9673L25.4916 1.43806H29.9777L20.6925 22.9818L15.2011 10.2498ZM101.878 11.5282C101.836 10.2098 102.062 8.89651 102.541 7.6674C103.02 6.43828 103.742 5.31868 104.665 4.37589C105.587 3.43311 106.691 2.68661 107.909 2.18128C109.128 1.67594 110.436 1.42219 111.755 1.43529C114.475 1.43529 117.343 2.08976 119.133 4.55714L116.412 7.32637C115.7 6.14299 113.936 5.31222 111.803 5.31222C108.813 5.31222 106.166 7.70299 106.166 11.5291C106.166 15.1541 108.371 17.9482 111.999 17.9482C113.003 17.9808 113.996 17.7257 114.86 17.2128C115.725 16.6999 116.424 15.9507 116.877 15.0534L119.818 17.3196C119.015 18.7207 117.843 19.8746 116.43 20.6558C115.016 21.437 113.416 21.8156 111.802 21.7504C105.968 21.7485 101.878 17.5947 101.878 11.5282ZM58.1796 11.579C58.1318 10.2361 58.3606 8.89765 58.8519 7.64692C59.3433 6.39619 60.0865 5.25986 61.0356 4.30854C61.9847 3.35722 63.1192 2.61125 64.3688 2.11696C65.6184 1.62268 66.9562 1.39065 68.2993 1.43529C69.6425 1.38646 70.9813 1.61582 72.2317 2.10896C73.482 2.60211 74.617 3.34839 75.5652 4.30098C76.5135 5.25357 77.2546 6.39189 77.742 7.64449C78.2294 8.89709 78.4527 10.2369 78.3977 11.5799C78.3977 17.3436 74.4285 21.7485 68.2993 21.7485C66.9545 21.7909 65.6155 21.5565 64.3651 21.0598C63.1147 20.5632 61.9797 19.815 61.0305 18.8615C60.0813 17.908 59.3381 16.7697 58.847 15.5171C58.356 14.2646 58.1275 12.9244 58.1759 11.5799L58.1796 11.579ZM62.47 11.579C62.47 15.0516 64.7011 17.9482 68.303 17.9482C71.9805 17.9482 74.1128 15.0534 74.1128 11.579C74.1128 8.12945 71.9805 5.28637 68.303 5.28637C64.6965 5.28637 62.4627 8.13037 62.4627 11.5799L62.47 11.579ZM38.8891 11.5282C38.8475 10.21 39.0728 8.89698 39.5515 7.66805C40.0302 6.43912 40.7524 5.31965 41.6747 4.3769C42.597 3.43416 43.7004 2.6876 44.9185 2.1821C46.1367 1.67659 47.4445 1.42257 48.7633 1.43529C51.4845 1.43529 54.3525 2.08976 56.1423 4.55714L53.4211 7.32637C52.7094 6.14299 50.9454 5.31222 48.8122 5.31222C45.8223 5.31222 43.175 7.70299 43.175 11.5291C43.175 15.1541 45.3802 17.9482 49.0079 17.9482C50.0124 17.9808 51.0053 17.7257 51.8696 17.2128C52.7339 16.6999 53.4336 15.9507 53.8863 15.0534L56.8319 17.3187C56.0287 18.7197 54.8567 19.8735 53.4433 20.6548C52.03 21.436 50.4295 21.8146 48.8159 21.7494C42.9783 21.7485 38.8854 17.5947 38.8854 11.5282H38.8891ZM95.518 21.4218L86.015 9.28791V21.4218H81.6765V1.63745H84.7873L94.246 13.6181V1.63745H98.555V21.4218H95.518ZM168.34 21.4218L171.646 13.7538L174.952 21.4218H168.34ZM158.648 21.4218V5.23652H154.138V1.63653H167.472V5.23652H162.962V21.4208L158.648 21.4218ZM139.239 21.4218V1.63745H145.608C150.437 1.63745 152.79 4.20453 152.79 7.5276C152.79 11.2781 149.702 14.0214 145.877 14.0214H143.549V21.4208L139.239 21.4218ZM143.552 10.247H145.341C147.719 10.247 148.48 9.19006 148.48 7.55345C148.48 6.2196 147.72 5.23837 145.318 5.23837H143.553L143.552 10.247ZM122.859 21.4208V1.63745H134.859V5.23745H127.17V9.54083H134.07V13.115H127.17V17.6704H135.443V21.4208H122.859ZM28.3891 21.4208L31.6947 13.7528L34.9993 21.4208H28.3891Z" fill="black"/>
</g>
<defs>
<clipPath id="clip0_612_3970">
<rect width="176" height="24" fill="white"/>
</clipPath>
</defs>
</svg>
