<svg width="28" height="28" viewBox="0 0 28 28" fill="none" xmlns="http://www.w3.org/2000/svg">
<g clip-path="url(#clip0_962_5717)">
<mask id="mask0_962_5717" style="mask-type:luminance" maskUnits="userSpaceOnUse" x="0" y="0" width="28" height="28">
<path d="M28 0H0V28H28V0Z" fill="white"/>
</mask>
<g mask="url(#mask0_962_5717)">
<path d="M5.22677 8.30664H22.8668L26.4134 26.4133H1.77344L5.22677 8.30664Z" fill="white"/>
<path d="M6.1601 9.33331L2.98677 25.3866H25.1068L22.0268 9.33331H6.1601ZM5.22677 8.30664H22.8668L26.4134 26.4133H1.77344L5.22677 8.30664Z" fill="black"/>
<path d="M19.3201 7.0001C19.3201 6.25344 19.2268 5.6001 18.9468 4.94677C18.6668 4.38677 18.2934 3.73344 17.7334 3.26677C17.2668 2.8001 16.7068 2.42677 16.0534 2.14677C15.4001 1.86677 14.6534 1.77344 14.0001 1.77344C13.2534 1.77344 12.6001 1.86677 11.9468 2.14677C11.2934 2.42677 10.7334 2.8001 10.2668 3.26677C9.8001 3.73344 9.42677 4.29344 9.14677 4.94677C8.86677 5.6001 8.77344 6.34677 8.77344 7.0001V12.2268H9.89344V11.2001V10.7334V7.0001C9.89344 5.97344 10.3601 4.85344 11.1068 4.10677C11.9468 3.3601 12.9734 2.89344 14.0934 2.89344C15.2134 2.89344 16.3334 3.3601 17.0801 4.10677C17.8268 4.85344 18.2934 5.8801 18.2934 7.0001V10.7334V11.2001V12.2268H19.3201V7.0001Z" fill="black"/>
<path d="M18.1067 26.1334L17.0801 25.8534L21.1867 8.77344L22.2134 9.05344L18.1067 26.1334Z" fill="black"/>
</g>
</g>
<defs>
<clipPath id="clip0_962_5717">
<rect width="28" height="28" fill="white"/>
</clipPath>
</defs>
</svg>
