<svg xmlns="http://www.w3.org/2000/svg" width="100" height="16" viewBox="0 0 100 16">
  <g id="ico_evaluate_fill_16" transform="translate(-15 -1055)">
    <path id="ico_evaluate_fill_16-2" data-name="ico_evaluate_fill_16" d="M7.715,0l2.532,5.01,5.468.97L12.107,9.988,12.829,16,7.715,13.026,2.539,16,3.48,9.988-.285,5.98l5.512-.97Z" transform="translate(15.285 1055)"/>
    <path id="ico_evaluate_fill_16-3" data-name="ico_evaluate_fill_16" d="M7.715,0l2.532,5.01,5.468.97L12.107,9.988,12.829,16,7.715,13.026,2.539,16,3.48,9.988-.285,5.98l5.512-.97Z" transform="translate(36.285 1055)"/>
    <path id="ico_evaluate_fill_16-4" data-name="ico_evaluate_fill_16" d="M7.715,0l2.532,5.01,5.468.97L12.107,9.988,12.829,16,7.715,13.026,2.539,16,3.48,9.988-.285,5.98l5.512-.97Z" transform="translate(57.285 1055)"/>
    <path id="ico_evaluate_fill_16-5" data-name="ico_evaluate_fill_16" d="M7.715,0l2.532,5.01,5.468.97L12.107,9.988,12.829,16,7.715,13.026,2.539,16,3.48,9.988-.285,5.98l5.512-.97Z" transform="translate(78.285 1055)"/>
    <path id="ico_evaluate_fill_16-6" data-name="ico_evaluate_fill_16" d="M7.715,0l2.532,5.01,5.468.97L12.107,9.988,12.829,16,7.715,13.026,2.539,16,3.48,9.988-.285,5.98l5.512-.97Z" transform="translate(99.285 1055)"/>
  </g>
</svg>
