<svg xmlns="http://www.w3.org/2000/svg" width="182" height="30" viewBox="0 0 182 30">
    <path data-name="ico_evaluate_fIll_30" d="m15 0 4.747 9.394L30 11.212l-6.765 7.515L24.585 30l-9.588-5.576L5.294 30l1.765-11.273L0 11.212l10.335-1.818zM53 0l4.747 9.394L68 11.212l-6.765 7.515L62.585 30l-9.588-5.576L43.294 30l1.765-11.273L38 11.212l10.335-1.818zM91 0l4.747 9.394L106 11.212l-6.765 7.515L100.585 30l-9.588-5.576L81.294 30l1.765-11.273L76 11.212l10.335-1.818zM129 0l4.747 9.394L144 11.212l-6.765 7.515L138.585 30l-9.588-5.576L119.294 30l1.765-11.273L114 11.212l10.335-1.818zM167 0l4.747 9.394L182 11.212l-6.765 7.515L176.585 30l-9.588-5.576L157.294 30l1.765-11.273L152 11.212l10.335-1.818z"/>
</svg>
