<svg width="30" height="30" viewBox="0 0 30 30" fill="none" xmlns="http://www.w3.org/2000/svg">
<path d="M5.5999 8.8999H24.4999L28.2999 28.2999H1.8999L5.5999 8.8999Z" fill="white"/>
<path d="M6.5999 9.9999L3.1999 27.1999H26.8999L23.5999 9.9999H6.5999ZM5.5999 8.8999H24.4999L28.2999 28.2999H1.8999L5.5999 8.8999Z" fill="black"/>
<path d="M20.6999 7.4999C20.6999 6.6999 20.5999 5.9999 20.2999 5.2999C19.9999 4.6999 19.5999 3.9999 18.9999 3.4999C18.4999 2.9999 17.8999 2.5999 17.1999 2.2999C16.4999 1.9999 15.6999 1.8999 14.9999 1.8999C14.1999 1.8999 13.4999 1.9999 12.7999 2.2999C12.0999 2.5999 11.4999 2.9999 10.9999 3.4999C10.4999 3.9999 10.0999 4.5999 9.7999 5.2999C9.4999 5.9999 9.3999 6.7999 9.3999 7.4999V13.0999H10.5999V11.9999V11.4999V7.4999C10.5999 6.3999 11.0999 5.1999 11.8999 4.3999C12.7999 3.5999 13.8999 3.0999 15.0999 3.0999C16.2999 3.0999 17.4999 3.5999 18.2999 4.3999C19.0999 5.1999 19.5999 6.2999 19.5999 7.4999V11.4999V11.9999V13.0999H20.6999V7.4999Z" fill="black"/>
<path d="M19.3998 27.9999L18.2998 27.6999L22.6998 9.3999L23.7998 9.6999L19.3998 27.9999Z" fill="black"/>
</svg>
