<svg width="16" height="15" viewBox="0 0 16 15" fill="none" xmlns="http://www.w3.org/2000/svg">
<path id="&#237;&#140;&#168;&#236;&#138;&#164; 409" d="M7.59422 1.68015C6.8698 0.924514 5.88728 0.5 4.8628 0.5C3.83832 0.5 2.8558 0.924514 2.13139 1.68015C1.40697 2.43579 1 3.46066 1 4.5293C1 5.59793 1.40697 6.6228 2.13139 7.37844L2.53717 7.80171L8 13.5L13.4628 7.80171L13.8686 7.37844C14.593 6.6228 15 5.59793 15 4.5293C15 3.46066 14.593 2.43579 13.8686 1.68015C13.1442 0.924514 12.1617 0.5 11.1372 0.5C10.1127 0.5 9.1302 0.924514 8.40579 1.68015L8 2.10343L7.59422 1.68015Z" stroke="white" stroke-width="0.8" stroke-miterlimit="10"/>
</svg>
