<svg width="30" height="30" viewBox="0 0 30 30" fill="none" xmlns="http://www.w3.org/2000/svg">
<g clip-path="url(#clip0_612_4008)">
<path d="M9.59427 3.37738C10.4984 3.38013 11.392 3.57125 12.2182 3.93857C13.0443 4.30589 13.7849 4.84133 14.3926 5.51076L15.0034 6.16803L15.6142 5.51076C16.2201 4.83911 16.9603 4.30217 17.7868 3.93464C18.6134 3.56712 19.5079 3.3772 20.4125 3.3772C21.317 3.3772 22.2115 3.56712 23.0381 3.93464C23.8646 4.30217 24.6048 4.83911 25.2108 5.51076C26.4775 6.90832 27.1791 8.72712 27.1791 10.6133C27.1791 12.4995 26.4775 14.3183 25.2108 15.7159L24.189 16.8148L15.0026 26.6957L4.79306 15.7159C3.52679 14.3181 2.82544 12.4994 2.82544 10.6133C2.82544 8.72726 3.52679 6.90855 4.79306 5.51076C5.4013 4.84121 6.14237 4.30574 6.96901 3.93843C7.79566 3.57112 8.6897 3.38004 9.59427 3.37738ZM15.0034 7.81784L13.5706 6.27581C13.0698 5.7171 12.4568 5.27021 11.7717 4.96428C11.0866 4.65834 10.3446 4.50022 9.59427 4.50022C8.84393 4.50022 8.10208 4.65834 7.41694 4.96428C6.73181 5.27021 6.11877 5.7171 5.61792 6.27581C4.5443 7.46556 3.95011 9.01115 3.95011 10.6137C3.95011 12.2162 4.5443 13.7618 5.61792 14.9516L6.63969 16.0505L15.0034 25.0489L24.3888 14.9516C25.4626 13.7619 26.057 12.2163 26.057 10.6137C26.057 9.01111 25.4626 7.46548 24.3888 6.27581C23.888 5.71723 23.275 5.27046 22.59 4.9646C21.9049 4.65873 21.1631 4.50063 20.4128 4.50063C19.6626 4.50063 18.9207 4.65873 18.2357 4.9646C17.5506 5.27046 16.9377 5.71723 16.4368 6.27581L15.0034 7.81784Z" fill="black"/>
</g>
<defs>
<clipPath id="clip0_612_4008">
<rect width="30" height="30" fill="white"/>
</clipPath>
</defs>
</svg>
