<svg xmlns="http://www.w3.org/2000/svg" width="182" height="30" viewBox="0 0 182 30">
    <g style="fill:none">
        <path d="m14.715 0 4.747 9.394 10.253 1.818-6.765 7.515L24.3 30l-9.588-5.576L5.009 30l1.765-11.273-7.059-7.515L10.05 9.394z" style="stroke:none" transform="translate(.285)"/>
        <path d="M14.723 2.233 10.72 10.29l-9.01 1.585L7.837 18.4 6.32 28.094l8.398-4.825 8.353 4.858-1.168-9.731 5.863-6.514-8.97-1.59-4.073-8.06M14.715 0l4.747 9.394 10.253 1.818-6.765 7.515L24.303 30l-9.588-5.576L5.009 30l1.765-11.273-7.059-7.515L10.05 9.394 14.715 0z" style="fill:#ccc;stroke:none" transform="translate(.285)"/>
    </g>
    <g data-name="ico_evaluate_fIll_30" style="fill:none">
        <path d="m14.715 0 4.747 9.394 10.253 1.818-6.765 7.515L24.3 30l-9.588-5.576L5.009 30l1.765-11.273-7.059-7.515L10.05 9.394z" style="stroke:none" transform="translate(38.285)"/>
        <path d="M14.723 2.233 10.72 10.29l-9.01 1.585L7.837 18.4 6.32 28.094l8.398-4.825 8.353 4.858-1.168-9.731 5.863-6.514-8.97-1.59-4.073-8.06M14.715 0l4.747 9.394 10.253 1.818-6.765 7.515L24.303 30l-9.588-5.576L5.009 30l1.765-11.273-7.059-7.515L10.05 9.394 14.715 0z" style="fill:#ccc;stroke:none" transform="translate(38.285)"/>
    </g>
    <g data-name="ico_evaluate_fIll_30" style="fill:none">
        <path d="m14.715 0 4.747 9.394 10.253 1.818-6.765 7.515L24.3 30l-9.588-5.576L5.009 30l1.765-11.273-7.059-7.515L10.05 9.394z" style="stroke:none" transform="translate(76.285)"/>
        <path d="M14.723 2.233 10.72 10.29l-9.01 1.585L7.837 18.4 6.32 28.094l8.398-4.825 8.353 4.858-1.168-9.731 5.863-6.514-8.97-1.59-4.073-8.06M14.715 0l4.747 9.394 10.253 1.818-6.765 7.515L24.303 30l-9.588-5.576L5.009 30l1.765-11.273-7.059-7.515L10.05 9.394 14.715 0z" style="fill:#ccc;stroke:none" transform="translate(76.285)"/>
    </g>
    <g data-name="ico_evaluate_fIll_30" style="fill:none">
        <path d="m14.715 0 4.747 9.394 10.253 1.818-6.765 7.515L24.3 30l-9.588-5.576L5.009 30l1.765-11.273-7.059-7.515L10.05 9.394z" style="stroke:none" transform="translate(114.285)"/>
        <path d="M14.723 2.233 10.72 10.29l-9.01 1.585L7.837 18.4 6.32 28.094l8.398-4.825 8.353 4.858-1.168-9.731 5.863-6.514-8.97-1.59-4.073-8.06M14.715 0l4.747 9.394 10.253 1.818-6.765 7.515L24.303 30l-9.588-5.576L5.009 30l1.765-11.273-7.059-7.515L10.05 9.394 14.715 0z" style="fill:#ccc;stroke:none" transform="translate(114.285)"/>
    </g>
    <g data-name="ico_evaluate_empty_30" style="fill:none">
        <path d="m14.715 0 4.747 9.394 10.253 1.818-6.765 7.515L24.3 30l-9.588-5.576L5.009 30l1.765-11.273-7.059-7.515L10.05 9.394z" style="stroke:none" transform="translate(152.285)"/>
        <path d="M14.723 2.233 10.72 10.29l-9.01 1.585L7.837 18.4 6.32 28.094l8.398-4.825 8.353 4.858-1.168-9.731 5.863-6.514-8.97-1.59-4.073-8.06M14.715 0l4.747 9.394 10.253 1.818-6.765 7.515L24.303 30l-9.588-5.576L5.009 30l1.765-11.273-7.059-7.515L10.05 9.394 14.715 0z" style="fill:#ccc;stroke:none" transform="translate(152.285)"/>
    </g>
</svg>
