<svg width="14" height="14" viewBox="0 0 14 14" fill="none" xmlns="http://www.w3.org/2000/svg">
<path id="&#237;&#140;&#168;&#236;&#138;&#164; 409" d="M6.59422 1.68015C5.8698 0.924514 4.88728 0.5 3.8628 0.5C2.83832 0.5 1.8558 0.924514 1.13139 1.68015C0.406973 2.43579 0 3.46066 0 4.5293C0 5.59793 0.406973 6.6228 1.13139 7.37844L1.53717 7.80171L7 13.5L12.4628 7.80171L12.8686 7.37844C13.593 6.6228 14 5.59793 14 4.5293C14 3.46066 13.593 2.43579 12.8686 1.68015C12.1442 0.924514 11.1617 0.5 10.1372 0.5C9.11272 0.5 8.1302 0.924514 7.40579 1.68015L7 2.10343L6.59422 1.68015Z" fill="#FA5500"/>
</svg>
