<svg width="25" height="25" viewBox="0 0 25 25" fill="none" xmlns="http://www.w3.org/2000/svg">
<g clip-path="url(#clip0_630_2007)">
<path d="M16.3829 15.8695C15.2712 17.2216 13.7179 18.1381 11.9967 18.4572C10.2755 18.7764 8.49693 18.4778 6.97433 17.6141C5.45173 16.7504 4.28283 15.377 3.67362 13.7359C3.0644 12.0948 3.05397 10.2913 3.64415 8.6433C4.23433 6.99527 5.38725 5.60843 6.89975 4.72716C8.41226 3.84589 10.1873 3.52674 11.912 3.82595C13.6368 4.12516 15.2006 5.02353 16.3279 6.36276C17.4552 7.70198 18.0736 9.39612 18.0742 11.1466C18.0753 12.8694 17.4774 14.539 16.3829 15.8695ZM16.3829 15.8695L22.7796 21.5564" stroke="black" stroke-width="1.1"/>
</g>
<defs>
<clipPath id="clip0_630_2007">
<rect width="25" height="25" fill="white"/>
</clipPath>
</defs>
</svg>
