<svg width="22" height="20" viewBox="0 0 22 20" fill="none" xmlns="http://www.w3.org/2000/svg">
<g clip-path="url(#clip0_443_1697)">
<mask id="mask0_443_1697" style="mask-type:luminance" maskUnits="userSpaceOnUse" x="11" y="0" width="11" height="20">
<path d="M21.9998 0H11.8193V20H21.9998V0Z" fill="white"/>
</mask>
<g mask="url(#mask0_443_1697)">
<path d="M11.819 19.3499C17.0761 19.3499 21.3378 15.1638 21.3378 9.9999C21.3378 4.83604 17.0761 0.649902 11.819 0.649902C6.56198 0.649902 2.30029 4.83604 2.30029 9.9999C2.30029 15.1638 6.56198 19.3499 11.819 19.3499Z" stroke="white" stroke-width="1.3"/>
</g>
<mask id="mask1_443_1697" style="mask-type:luminance" maskUnits="userSpaceOnUse" x="1" y="10" width="21" height="10">
<path d="M22.0001 10H1.63916V20H22.0001V10Z" fill="white"/>
</mask>
<g mask="url(#mask1_443_1697)">
<path d="M11.8195 19.3499C17.0766 19.3499 21.3383 15.1638 21.3383 9.9999C21.3383 4.83604 17.0766 0.649902 11.8195 0.649902C6.56247 0.649902 2.30078 4.83604 2.30078 9.9999C2.30078 15.1638 6.56247 19.3499 11.8195 19.3499Z" stroke="white" stroke-width="1.3"/>
</g>
<path d="M0.580078 12.2399L2.00534 9.62988L4.80497 10.9599" stroke="white" stroke-width="1.1" stroke-linejoin="round"/>
<path d="M10.8013 0.649902H12.0026" stroke="white" stroke-width="1.3" stroke-linecap="round"/>
<path d="M11.8193 5.25977V10.1798L14.4561 12.8498" stroke="white" stroke-width="1.3" stroke-linejoin="round"/>
<path d="M7.11621 1.51988L7.94083 1.12988" stroke="white" stroke-width="1.3" stroke-linecap="round"/>
<path d="M4.64209 3.6102L5.32418 2.9502" stroke="white" stroke-width="1.3" stroke-linecap="round"/>
<path d="M2.84033 6.77977L3.29845 5.75977" stroke="white" stroke-width="1.3" stroke-linecap="round"/>
</g>
<defs>
<clipPath id="clip0_443_1697">
<rect width="22" height="20" fill="white"/>
</clipPath>
</defs>
</svg>
