<svg xmlns="http://www.w3.org/2000/svg" width="100" height="16" viewBox="0 0 100 16">
    <g data-name="ico_evaluate_fill_16">
        <path d="m12.09 14.876-4.073-2.368-.3-.175-.3.173-4.092 2.35.748-4.775.045-.29-.2-.214L.912 6.378l4.418-.777.299-.053.135-.271L7.72 1.34 9.71 5.28l.136.268.295.053 4.404.78-2.885 3.205-.182.203.032.27.579 4.817z" style="stroke:none" transform="translate(.285)"/>
        <path d="M7.724 2.68 6.032 6.086l-3.922.69 2.646 2.817-.645 4.119L7.72 11.64l3.631 2.112-.5-4.162 2.527-2.806-3.93-.697-1.723-3.408M7.715 0l2.532 5.01 5.468.97-3.608 4.008L12.83 16l-5.114-2.974L2.539 16l.94-6.012L-.284 5.98l5.512-.97L7.715 0z" style="fill:#000;stroke:none" transform="translate(.285)"/>
    </g>
    <g data-name="ico_evaluate_fill_16">
        <path d="m12.09 14.876-4.073-2.368-.3-.175-.3.173-4.092 2.35.748-4.775.045-.29-.2-.214L.912 6.378l4.418-.777.299-.053.135-.271L7.72 1.34 9.71 5.28l.136.268.295.053 4.404.78-2.885 3.205-.182.203.032.27.579 4.817z" style="stroke:none" transform="translate(21.285)"/>
        <path d="M7.724 2.68 6.032 6.086l-3.922.69 2.646 2.817-.645 4.119L7.72 11.64l3.631 2.112-.5-4.162 2.527-2.806-3.93-.697-1.723-3.408M7.715 0l2.532 5.01 5.468.97-3.608 4.008L12.83 16l-5.114-2.974L2.539 16l.94-6.012L-.284 5.98l5.512-.97L7.715 0z" style="fill:#000;stroke:none" transform="translate(21.285)"/>
    </g>
    <g data-name="ico_evaluate_fill_16">
        <path d="m12.09 14.876-4.073-2.368-.3-.175-.3.173-4.092 2.35.748-4.775.045-.29-.2-.214L.912 6.378l4.418-.777.299-.053.135-.271L7.72 1.34 9.71 5.28l.136.268.295.053 4.404.78-2.885 3.205-.182.203.032.27.579 4.817z" style="stroke:none" transform="translate(42.285)"/>
        <path d="M7.724 2.68 6.032 6.086l-3.922.69 2.646 2.817-.645 4.119L7.72 11.64l3.631 2.112-.5-4.162 2.527-2.806-3.93-.697-1.723-3.408M7.715 0l2.532 5.01 5.468.97-3.608 4.008L12.83 16l-5.114-2.974L2.539 16l.94-6.012L-.284 5.98l5.512-.97L7.715 0z" style="fill:#000;stroke:none" transform="translate(42.285)"/>
    </g>
    <g data-name="ico_evaluate_fill_16">
        <path d="m12.09 14.876-4.073-2.368-.3-.175-.3.173-4.092 2.35.748-4.775.045-.29-.2-.214L.912 6.378l4.418-.777.299-.053.135-.271L7.72 1.34 9.71 5.28l.136.268.295.053 4.404.78-2.885 3.205-.182.203.032.27.579 4.817z" style="stroke:none" transform="translate(63.285)"/>
        <path d="M7.724 2.68 6.032 6.086l-3.922.69 2.646 2.817-.645 4.119L7.72 11.64l3.631 2.112-.5-4.162 2.527-2.806-3.93-.697-1.723-3.408M7.715 0l2.532 5.01 5.468.97-3.608 4.008L12.83 16l-5.114-2.974L2.539 16l.94-6.012L-.284 5.98l5.512-.97L7.715 0z" style="fill:#000;stroke:none" transform="translate(63.285)"/>
    </g>
    <g data-name="ico_evaluate_fill_16">
        <path d="m12.09 14.876-4.073-2.368-.3-.175-.3.173-4.092 2.35.748-4.775.045-.29-.2-.214L.912 6.378l4.418-.777.299-.053.135-.271L7.72 1.34 9.71 5.28l.136.268.295.053 4.404.78-2.885 3.205-.182.203.032.27.579 4.817z" style="stroke:none" transform="translate(84.285)"/>
        <path d="M7.724 2.68 6.032 6.086l-3.922.69 2.646 2.817-.645 4.119L7.72 11.64l3.631 2.112-.5-4.162 2.527-2.806-3.93-.697-1.723-3.408M7.715 0l2.532 5.01 5.468.97-3.608 4.008L12.83 16l-5.114-2.974L2.539 16l.94-6.012L-.284 5.98l5.512-.97L7.715 0z" style="fill:#000;stroke:none" transform="translate(84.285)"/>
    </g>
</svg>
