<svg xmlns="http://www.w3.org/2000/svg" width="100" height="16" viewBox="0 0 100 16">
    <g data-name="ico_evaluate_empty_16" style="fill:none">
        <path d="m7.715 0 2.532 5.01 5.468.97-3.608 4.008.722 6.012-5.114-2.974L2.539 16l.941-6.012L-.285 5.98l5.512-.97z" style="stroke:none" transform="translate(.285)"/>
        <path d="M7.723 2.233 5.898 5.907l-4.187.737L4.543 9.66l-.694 4.434 3.87-2.223 3.878 2.256-.537-4.47 2.706-3.007-4.186-.743-1.857-3.674M7.715 0l2.532 5.01 5.468.97-3.608 4.008L12.83 16l-5.114-2.974L2.539 16l.94-6.012L-.284 5.98l5.512-.97L7.715 0z" style="fill:#ccc;stroke:none" transform="translate(.285)"/>
    </g>
    <g data-name="ico_evaluate_empty_16" style="fill:none">
        <path d="m7.715 0 2.532 5.01 5.468.97-3.608 4.008.722 6.012-5.114-2.974L2.539 16l.941-6.012L-.285 5.98l5.512-.97z" style="stroke:none" transform="translate(21.285)"/>
        <path d="M7.723 2.233 5.898 5.907l-4.187.737L4.543 9.66l-.694 4.434 3.87-2.223 3.878 2.256-.537-4.47 2.706-3.007-4.186-.743-1.857-3.674M7.715 0l2.532 5.01 5.468.97-3.608 4.008L12.83 16l-5.114-2.974L2.539 16l.94-6.012L-.284 5.98l5.512-.97L7.715 0z" style="fill:#ccc;stroke:none" transform="translate(21.285)"/>
    </g>
    <g data-name="ico_evaluate_empty_16" style="fill:none">
        <path d="m7.715 0 2.532 5.01 5.468.97-3.608 4.008.722 6.012-5.114-2.974L2.539 16l.941-6.012L-.285 5.98l5.512-.97z" style="stroke:none" transform="translate(42.285)"/>
        <path d="M7.723 2.233 5.898 5.907l-4.187.737L4.543 9.66l-.694 4.434 3.87-2.223 3.878 2.256-.537-4.47 2.706-3.007-4.186-.743-1.857-3.674M7.715 0l2.532 5.01 5.468.97-3.608 4.008L12.83 16l-5.114-2.974L2.539 16l.94-6.012L-.284 5.98l5.512-.97L7.715 0z" style="fill:#ccc;stroke:none" transform="translate(42.285)"/>
    </g>
    <g data-name="ico_evaluate_empty_16" style="fill:none">
        <path d="m7.715 0 2.532 5.01 5.468.97-3.608 4.008.722 6.012-5.114-2.974L2.539 16l.941-6.012L-.285 5.98l5.512-.97z" style="stroke:none" transform="translate(63.285)"/>
        <path d="M7.723 2.233 5.898 5.907l-4.187.737L4.543 9.66l-.694 4.434 3.87-2.223 3.878 2.256-.537-4.47 2.706-3.007-4.186-.743-1.857-3.674M7.715 0l2.532 5.01 5.468.97-3.608 4.008L12.83 16l-5.114-2.974L2.539 16l.94-6.012L-.284 5.98l5.512-.97L7.715 0z" style="fill:#ccc;stroke:none" transform="translate(63.285)"/>
    </g>
    <g data-name="ico_evaluate_empty_16" style="fill:none">
        <path d="m7.715 0 2.532 5.01 5.468.97-3.608 4.008.722 6.012-5.114-2.974L2.539 16l.941-6.012L-.285 5.98l5.512-.97z" style="stroke:none" transform="translate(84.285)"/>
        <path d="M7.723 2.233 5.898 5.907l-4.187.737L4.543 9.66l-.694 4.434 3.87-2.223 3.878 2.256-.537-4.47 2.706-3.007-4.186-.743-1.857-3.674M7.715 0l2.532 5.01 5.468.97-3.608 4.008L12.83 16l-5.114-2.974L2.539 16l.94-6.012L-.284 5.98l5.512-.97L7.715 0z" style="fill:#ccc;stroke:none" transform="translate(84.285)"/>
    </g>
</svg>
