<svg xmlns="http://www.w3.org/2000/svg" width="14" height="12" viewBox="0 0 14 12">
    <g data-name="사각형 1285" style="stroke:#fa5500;fill:none">
        <path d="M1 0h3.6v8.726H1a1 1 0 0 1-1-1V1a1 1 0 0 1 1-1z" style="stroke:none" transform="translate(0 3.274)"/>
        <path d="M1 .5h3.1v7.726H1a.5.5 0 0 1-.5-.5V1A.5.5 0 0 1 1 .5z" style="fill:none" transform="translate(0 3.274)"/>
    </g>
    <g data-name="합치기 72" style="fill:none">
        <path d="M.5 12a.5.5 0 0 1-.5-.5V0a6.243 6.243 0 0 1 3.255.624 3.16 3.16 0 0 1 1.329 2.65h3.269a2.5 2.5 0 0 1 2.5 2.5V9.5a2.5 2.5 0 0 1-2.5 2.5z" style="stroke:none" transform="translate(3.646)"/>
        <path d="M7.853 11c.828 0 1.5-.673 1.5-1.5V5.773c0-.827-.672-1.5-1.5-1.5H3.655l-.068-.927c-.091-1.25-.538-1.67-.865-1.876-.436-.276-1.063-.392-1.722-.44V11h6.853m0 1H.5a.5.5 0 0 1-.5-.5V0c1.179 0 2.388.077 3.255.624.799.504 1.236 1.374 1.33 2.65h3.268a2.5 2.5 0 0 1 2.5 2.499V9.5a2.5 2.5 0 0 1-2.5 2.5z" style="fill:#fa5500;stroke:none" transform="translate(3.646)"/>
    </g>
</svg>
