<svg width="28" height="28" viewBox="0 0 28 28" fill="none" xmlns="http://www.w3.org/2000/svg">
<g clip-path="url(#clip0_1243_1814)">
<path d="M14.4747 8.77148L25.7377 25.9346H3.211L14.4747 8.77148Z" fill="white"/>
<path d="M14.4747 10.6816L5.15256 24.8867H23.7969L14.4747 10.6816ZM14.4747 8.77148L25.7377 25.9346H3.211L14.4747 8.77148Z" fill="black"/>
<path d="M14.474 15.2065C17.8803 15.2065 20.6417 12.4452 20.6417 9.03882C20.6417 5.63248 17.8803 2.87109 14.474 2.87109C11.0677 2.87109 8.30627 5.63248 8.30627 9.03882C8.30627 12.4452 11.0677 15.2065 14.474 15.2065Z" fill="white"/>
<path d="M14.474 3.91908C13.4614 3.91908 12.4716 4.21934 11.6296 4.78191C10.7877 5.34447 10.1315 6.14407 9.74397 7.07958C9.35647 8.01509 9.25509 9.0445 9.45263 10.0376C9.65018 11.0308 10.1378 11.943 10.8538 12.659C11.5698 13.375 12.4821 13.8626 13.4752 14.0602C14.4683 14.2577 15.4977 14.1563 16.4332 13.7688C17.3688 13.3813 18.1683 12.7251 18.7309 11.8832C19.2935 11.0413 19.5937 10.0514 19.5937 9.03882C19.5921 7.68149 19.0521 6.38023 18.0924 5.42045C17.1326 4.46067 15.8313 3.92074 14.474 3.91908ZM14.474 2.87109C15.6939 2.87109 16.8863 3.23282 17.9006 3.91054C18.9149 4.58826 19.7054 5.55153 20.1722 6.67853C20.6391 7.80554 20.7612 9.04566 20.5232 10.2421C20.2852 11.4385 19.6978 12.5375 18.8352 13.4001C17.9727 14.2626 16.8737 14.8501 15.6773 15.088C14.4808 15.326 13.2407 15.2039 12.1137 14.7371C10.9867 14.2702 10.0234 13.4797 9.34572 12.4654C8.66801 11.4511 8.30627 10.2587 8.30627 9.03882C8.30627 7.40304 8.95609 5.83425 10.1128 4.67758C11.2694 3.52091 12.8382 2.87109 14.474 2.87109Z" fill="black"/>
</g>
<defs>
<clipPath id="clip0_1243_1814">
<rect width="28" height="28" fill="white"/>
</clipPath>
</defs>
</svg>
