<svg xmlns="http://www.w3.org/2000/svg" xmlns:xlink="http://www.w3.org/1999/xlink" width="20" height="20" viewBox="0 0 20 20">
    <defs>
        <clipPath id="s2t00i51zb">
            <use xlink:href="#es77pjhh7a"/>
        </clipPath>
    </defs>
    <path style="fill:transparent" d="M0 0h20v20H0z"/>
    <g data-name="Group 1385">
        <g data-name="Path 477" style="fill:#fff">
            <path d="M18.396 13.738H.604L3.128.5h12.744l2.524 13.238z" style="stroke:none" transform="translate(.5 5.262)"/>
            <path d="M3.542 1 1.209 13.238H17.79L15.458 1H3.542m-.828-1h13.572L19 14.238H0L2.714 0z" style="fill:#000;stroke:none" transform="translate(.5 5.262)"/>
        </g>
        <g data-name="Subtraction 7" style="fill:#fff">
            <path d="M7.12 7.12H.5V3.81A3.313 3.313 0 0 1 3.81.5a3.313 3.313 0 0 1 3.31 3.31v3.31z" style="stroke:none" transform="translate(6.19 .5)"/>
            <path d="M6.62 6.62V3.81C6.62 2.26 5.358 1 3.81 1 2.26 1 1 2.26 1 3.81v2.81h5.62m1 1H0V3.81C0 1.709 1.709 0 3.81 0c2.1 0 3.81 1.709 3.81 3.81v3.81z" style="fill:#000;stroke:none" transform="translate(6.19 .5)"/>
        </g>
        <path data-name="Line 8" transform="translate(12.8 5.5)" style="stroke:#000;fill:none" d="M3.3 0 0 13.724"/>
        <path data-name="Rectangle 906" transform="translate(7.143 5.88)" style="fill:#fff" d="M0 0h5.714v2.905H0z"/>
        <g data-name="Rectangle 907" transform="translate(7.143 5.012)" style="stroke:#000;fill:#fff">
            <path id="es77pjhh7a" style="stroke:none" d="M0 0h5.714v.952H0z"/>
            <path d="M0 .452h5.714M5.214 0v.952m.5-.452H0m.5.452V0" style="clip-path:url(#s2t00i51zb);fill:none"/>
        </g>
    </g>
</svg>
