<svg width="380" height="150" viewBox="0 0 380 150" fill="none" xmlns="http://www.w3.org/2000/svg">
<mask id="path-1-inside-1_731_17186" fill="white">
<path fill-rule="evenodd" clip-rule="evenodd" d="M332 0C332 4.41828 328.418 8 324 8C319.582 8 316 4.41828 316 0H0V150H316C316 145.582 319.582 142 324 142C328.418 142 332 145.582 332 150H380V0H332Z"/>
</mask>
<path fill-rule="evenodd" clip-rule="evenodd" d="M332 0C332 4.41828 328.418 8 324 8C319.582 8 316 4.41828 316 0H0V150H316C316 145.582 319.582 142 324 142C328.418 142 332 145.582 332 150H380V0H332Z" fill="white"/>
<path d="M332 0V-1H331V0H332ZM316 0H317V-1H316V0ZM0 0V-1H-1V0H0ZM0 150H-1V151H0V150ZM316 150V151H317V150H316ZM332 150H331V151H332V150ZM380 150V151H381V150H380ZM380 0H381V-1H380V0ZM324 9C328.971 9 333 4.97056 333 0H331C331 3.86599 327.866 7 324 7V9ZM315 0C315 4.97056 319.029 9 324 9V7C320.134 7 317 3.86599 317 0H315ZM0 1H316V-1H0V1ZM1 150V0H-1V150H1ZM316 149H0V151H316V149ZM317 150C317 146.134 320.134 143 324 143V141C319.029 141 315 145.029 315 150H317ZM324 143C327.866 143 331 146.134 331 150H333C333 145.029 328.971 141 324 141V143ZM380 149H332V151H380V149ZM379 0V150H381V0H379ZM332 1H380V-1H332V1Z" fill="#D9D9D9" mask="url(#path-1-inside-1_731_17186)"/>
<path d="M323.5 21V129" stroke="#E9E9E9" stroke-dasharray="1 1"/>
</svg>
