<svg xmlns="http://www.w3.org/2000/svg" width="38" height="38" viewBox="0 0 38 38">
    <path style="fill:transparent" d="M0 0h38v38H0z"/>
    <path data-name="Heart Normal" d="M11.548 3.001a9.189 9.189 0 0 1 6.776 3.012L19 6.74l.676-.727a9.129 9.129 0 0 1 13.552 0 10.694 10.694 0 0 1 0 14.367L19 35.688 4.775 20.38a10.7 10.7 0 0 1 0-14.367 9.192 9.192 0 0 1 6.773-3.012zM19 9.677l-2.14-2.3a7.13 7.13 0 0 0-10.624 0 8.691 8.691 0 0 0 0 11.643l1.408 1.513L19 32.752 31.763 19.02a8.688 8.688 0 0 0 0-11.643 7.13 7.13 0 0 0-10.623 0z"/>
</svg>
